<svg width="21" height="24" viewBox="0 0 21 24" fill="none" xmlns="http://www.w3.org/2000/svg">
<mask id="path-1-outside-1_9_13229" maskUnits="userSpaceOnUse" x="-1.03276" y="-0.528039" width="23.0663" height="26.0587" fill="black">
<rect fill="white" x="-1.03276" y="-0.528039" width="23.0663" height="26.0587"/>
<path d="M9.16174 1.32987C9.7728 0.671268 10.8392 0.673991 11.4469 1.3357L19.5511 9.48143C20.007 9.93962 20.1575 10.6509 19.902 11.2597C19.6466 11.8684 19.0362 12.2731 18.376 12.2714L13.501 12.259L13.4772 21.6027C13.4743 22.7199 12.6087 23.6317 11.4407 23.6287L9.00325 23.6225C7.88606 23.6196 6.97434 22.7033 6.97719 21.5861L7.00106 12.2424L2.12607 12.2299C1.5167 12.2283 0.908363 11.8205 0.656014 11.2105C0.403665 10.6005 0.557824 9.88995 1.01602 9.43409L9.16174 1.32987Z"/>
</mask>
<path d="M9.16174 1.32987C9.7728 0.671268 10.8392 0.673991 11.4469 1.3357L19.5511 9.48143C20.007 9.93962 20.1575 10.6509 19.902 11.2597C19.6466 11.8684 19.0362 12.2731 18.376 12.2714L13.501 12.259L13.4772 21.6027C13.4743 22.7199 12.6087 23.6317 11.4407 23.6287L9.00325 23.6225C7.88606 23.6196 6.97434 22.7033 6.97719 21.5861L7.00106 12.2424L2.12607 12.2299C1.5167 12.2283 0.908363 11.8205 0.656014 11.2105C0.403665 10.6005 0.557824 9.88995 1.01602 9.43409L9.16174 1.32987Z" fill="#497D0C"/>
<path d="M9.16174 1.32987L9.86704 2.03878L9.88122 2.02468L9.89481 2.01002L9.16174 1.32987ZM11.4469 1.3357L10.7104 2.0121L10.7239 2.02683L10.738 2.041L11.4469 1.3357ZM13.501 12.259L13.5036 11.259L12.5036 11.2564L12.501 12.2564L13.501 12.259ZM7.00106 12.2424L8.00105 12.2449L8.00361 11.2449L7.00361 11.2424L7.00106 12.2424ZM9.89481 2.01002C10.1088 1.77937 10.4975 1.78036 10.7104 2.0121L12.1834 0.659301C11.1809 -0.43238 9.43679 -0.436835 8.42868 0.649711L9.89481 2.01002ZM10.738 2.041L18.8422 10.1867L20.26 8.77613L12.1558 0.630402L10.738 2.041ZM18.8422 10.1867C19.0191 10.3645 19.0749 10.6465 18.98 10.8727L20.8241 11.6466C21.2401 10.6554 20.9949 9.51472 20.26 8.77613L18.8422 10.1867ZM18.98 10.8727C18.8807 11.1092 18.635 11.2721 18.3786 11.2714L18.3735 13.2714C19.4373 13.2741 20.4125 12.6276 20.8241 11.6466L18.98 10.8727ZM18.3786 11.2714L13.5036 11.259L13.4985 13.2589L18.3735 13.2714L18.3786 11.2714ZM12.501 12.2564L12.4772 21.6001L14.4772 21.6052L14.501 12.2615L12.501 12.2564ZM12.4772 21.6001C12.4757 22.1815 12.0427 22.6303 11.4433 22.6287L11.4382 24.6287C13.1748 24.6332 14.4729 23.2582 14.4772 21.6052L12.4772 21.6001ZM11.4433 22.6287L9.0058 22.6225L9.00069 24.6225L11.4382 24.6287L11.4433 22.6287ZM9.0058 22.6225C8.4409 22.6211 7.97575 22.1535 7.97719 21.5886L5.97719 21.5835C5.97293 23.253 7.33123 24.6182 9.00069 24.6225L9.0058 22.6225ZM7.97719 21.5886L8.00105 12.2449L6.00106 12.2398L5.97719 21.5835L7.97719 21.5886ZM7.00361 11.2424L2.12863 11.2299L2.12352 13.2299L6.9985 13.2423L7.00361 11.2424ZM2.12863 11.2299C1.9407 11.2294 1.685 11.0819 1.58007 10.8283L-0.268042 11.5928C0.131722 12.5592 1.09269 13.2273 2.12352 13.2299L2.12863 11.2299ZM1.58007 10.8283C1.48629 10.6016 1.54352 10.3199 1.72132 10.143L0.310721 8.72518C-0.427871 9.46001 -0.678963 10.5994 -0.268042 11.5928L1.58007 10.8283ZM1.72132 10.143L9.86704 2.03878L8.45645 0.620954L0.310721 8.72518L1.72132 10.143Z" fill="#497D0C" mask="url(#path-1-outside-1_9_13229)"/>
</svg>
