<svg width="21" height="26" viewBox="0 0 21 26" fill="none" xmlns="http://www.w3.org/2000/svg">
<mask id="path-1-outside-1_1041_991" maskUnits="userSpaceOnUse" x="-0.229048" y="-0.0281607" width="23.0663" height="26.0587" fill="black">
<rect fill="white" x="-0.229048" y="-0.0281607" width="23.0663" height="26.0587"/>
<path d="M9.96546 1.82974C10.5765 1.17115 11.6429 1.17387 12.2506 1.83558L20.3548 9.9813C20.8107 10.4395 20.9612 11.1508 20.7058 11.7595C20.4503 12.3683 19.8399 12.773 19.1797 12.7713L14.3047 12.7588L14.2809 22.1025C14.278 23.2197 13.4124 24.1316 12.2445 24.1286L9.80696 24.1224C8.68977 24.1195 7.77805 23.2031 7.7809 22.0859L7.80477 12.7422L2.92978 12.7298C2.32041 12.7282 1.71207 12.3204 1.45972 11.7104C1.20738 11.1004 1.36153 10.3898 1.81973 9.93397L9.96546 1.82974Z"/>
</mask>
<path d="M9.96546 1.82974C10.5765 1.17115 11.6429 1.17387 12.2506 1.83558L20.3548 9.9813C20.8107 10.4395 20.9612 11.1508 20.7058 11.7595C20.4503 12.3683 19.8399 12.773 19.1797 12.7713L14.3047 12.7588L14.2809 22.1025C14.278 23.2197 13.4124 24.1316 12.2445 24.1286L9.80696 24.1224C8.68977 24.1195 7.77805 23.2031 7.7809 22.0859L7.80477 12.7422L2.92978 12.7298C2.32041 12.7282 1.71207 12.3204 1.45972 11.7104C1.20738 11.1004 1.36153 10.3898 1.81973 9.93397L9.96546 1.82974Z" fill="#497D0C"/>
<path d="M9.96546 1.82974L10.6708 2.53865L10.6849 2.52455L10.6985 2.5099L9.96546 1.82974ZM12.2506 1.83558L11.5141 2.51198L11.5276 2.52671L11.5417 2.54088L12.2506 1.83558ZM14.3047 12.7588L14.3073 11.7588L13.3073 11.7563L13.3047 12.7563L14.3047 12.7588ZM7.80477 12.7422L8.80476 12.7448L8.80732 11.7448L7.80732 11.7422L7.80477 12.7422ZM10.6985 2.5099C10.9125 2.27925 11.3013 2.28024 11.5141 2.51198L12.9871 1.15918C11.9846 0.0674983 10.2405 0.0630439 9.23239 1.14959L10.6985 2.5099ZM11.5417 2.54088L19.6459 10.6866L21.0637 9.27601L12.9595 1.13028L11.5417 2.54088ZM19.6459 10.6866C19.8228 10.8644 19.8786 11.1464 19.7837 11.3726L21.6278 12.1465C22.0438 11.1553 21.7986 10.0146 21.0637 9.27601L19.6459 10.6866ZM19.7837 11.3726C19.6844 11.6091 19.4387 11.7719 19.1823 11.7713L19.1772 13.7713C20.241 13.774 21.2162 13.1275 21.6278 12.1465L19.7837 11.3726ZM19.1823 11.7713L14.3073 11.7588L14.3022 13.7588L19.1772 13.7713L19.1823 11.7713ZM13.3047 12.7563L13.2809 22.1L15.2809 22.1051L15.3047 12.7614L13.3047 12.7563ZM13.2809 22.1C13.2794 22.6814 12.8464 23.1301 12.247 23.1286L12.2419 25.1286C13.9785 25.133 15.2767 23.7581 15.2809 22.1051L13.2809 22.1ZM12.247 23.1286L9.80951 23.1224L9.8044 25.1224L12.2419 25.1286L12.247 23.1286ZM9.80951 23.1224C9.24461 23.1209 8.77946 22.6534 8.7809 22.0885L6.78091 22.0834C6.77664 23.7529 8.13494 25.1181 9.8044 25.1224L9.80951 23.1224ZM8.7809 22.0885L8.80476 12.7448L6.80477 12.7397L6.78091 22.0834L8.7809 22.0885ZM7.80732 11.7422L2.93234 11.7298L2.92723 13.7298L7.80221 13.7422L7.80732 11.7422ZM2.93234 11.7298C2.74442 11.7293 2.48871 11.5818 2.38378 11.3281L0.535668 12.0927C0.935434 13.059 1.8964 13.7271 2.92723 13.7298L2.93234 11.7298ZM2.38378 11.3281C2.29 11.1014 2.34723 10.8198 2.52503 10.6429L1.11443 9.22506C0.37584 9.95989 0.124748 11.0993 0.535668 12.0927L2.38378 11.3281ZM2.52503 10.6429L10.6708 2.53865L9.26016 1.12083L1.11443 9.22506L2.52503 10.6429Z" fill="#497D0C" mask="url(#path-1-outside-1_1041_991)"/>
</svg>
