<svg width="21" height="24" viewBox="0 0 21 24" fill="none" xmlns="http://www.w3.org/2000/svg">
<mask id="path-1-outside-1_600_994" maskUnits="userSpaceOnUse" x="-0.866579" y="-1.0305" width="23.0663" height="26.0587" fill="black">
<rect fill="white" x="-0.866579" y="-1.0305" width="23.0663" height="26.0587"/>
<path d="M12.0052 23.1703C11.3942 23.8289 10.3278 23.8261 9.7201 23.1644L1.61587 15.0187C1.16001 14.5605 1.00948 13.8492 1.26495 13.2405C1.52041 12.6317 2.13082 12.227 2.79097 12.2287L7.66596 12.2412L7.68982 2.89745C7.69267 1.78027 8.55829 0.868413 9.72625 0.871396L12.1637 0.877621C13.2809 0.880475 14.1927 1.79687 14.1898 2.91405L14.1659 12.2578L19.0409 12.2702C19.6503 12.2718 20.2586 12.6796 20.511 13.2896C20.7633 13.8996 20.6092 14.6102 20.151 15.066L12.0052 23.1703Z"/>
</mask>
<path d="M12.0052 23.1703C11.3942 23.8289 10.3278 23.8261 9.7201 23.1644L1.61587 15.0187C1.16001 14.5605 1.00948 13.8492 1.26495 13.2405C1.52041 12.6317 2.13082 12.227 2.79097 12.2287L7.66596 12.2412L7.68982 2.89745C7.69267 1.78027 8.55829 0.868413 9.72625 0.871396L12.1637 0.877621C13.2809 0.880475 14.1927 1.79687 14.1898 2.91405L14.1659 12.2578L19.0409 12.2702C19.6503 12.2718 20.2586 12.6796 20.511 13.2896C20.7633 13.8996 20.6092 14.6102 20.151 15.066L12.0052 23.1703Z" fill="#58790C"/>
<path d="M12.0052 23.1703L11.2999 22.4613L11.2858 22.4754L11.2722 22.4901L12.0052 23.1703ZM9.7201 23.1644L10.4566 22.488L10.4431 22.4733L10.429 22.4591L9.7201 23.1644ZM7.66596 12.2412L7.6634 13.2412L8.6634 13.2437L8.66595 12.2437L7.66596 12.2412ZM14.1659 12.2578L13.1659 12.2552L13.1634 13.2552L14.1634 13.2578L14.1659 12.2578ZM11.2722 22.4901C11.0582 22.7208 10.6695 22.7198 10.4566 22.488L8.98356 23.8408C9.98612 24.9325 11.7302 24.937 12.7383 23.8504L11.2722 22.4901ZM10.429 22.4591L2.32479 14.3134L0.906964 15.724L9.01119 23.8697L10.429 22.4591ZM2.32479 14.3134C2.14789 14.1356 2.0921 13.8536 2.18704 13.6274L0.342855 12.8535C-0.0731344 13.8447 0.172135 14.9854 0.906964 15.724L2.32479 14.3134ZM2.18704 13.6274C2.28628 13.3909 2.53196 13.2281 2.78842 13.2287L2.79353 11.2287C1.72967 11.226 0.754538 11.8725 0.342855 12.8535L2.18704 13.6274ZM2.78842 13.2287L7.6634 13.2412L7.66851 11.2412L2.79353 11.2287L2.78842 13.2287ZM8.66595 12.2437L8.68982 2.90001L6.68982 2.8949L6.66596 12.2386L8.66595 12.2437ZM8.68982 2.90001C8.6913 2.31864 9.12434 1.86986 9.7237 1.87139L9.72881 -0.128601C7.99223 -0.133036 6.69405 1.2419 6.68982 2.8949L8.68982 2.90001ZM9.7237 1.87139L12.1612 1.87762L12.1663 -0.122375L9.72881 -0.128601L9.7237 1.87139ZM12.1612 1.87762C12.7261 1.87906 13.1912 2.3466 13.1898 2.9115L15.1898 2.91661C15.1941 1.24714 13.8358 -0.118112 12.1663 -0.122375L12.1612 1.87762ZM13.1898 2.9115L13.1659 12.2552L15.1659 12.2603L15.1898 2.91661L13.1898 2.9115ZM14.1634 13.2578L19.0384 13.2702L19.0435 11.2702L14.1685 11.2578L14.1634 13.2578ZM19.0384 13.2702C19.2263 13.2707 19.482 13.4182 19.5869 13.6719L21.435 12.9073C21.0353 11.941 20.0743 11.2729 19.0435 11.2702L19.0384 13.2702ZM19.5869 13.6719C19.6807 13.8986 19.6235 14.1802 19.4457 14.3571L20.8563 15.7749C21.5949 15.0401 21.846 13.9007 21.435 12.9073L19.5869 13.6719ZM19.4457 14.3571L11.2999 22.4613L12.7105 23.8792L20.8563 15.7749L19.4457 14.3571Z" fill="#58790C" mask="url(#path-1-outside-1_600_994)"/>
</svg>
