<svg width="16" height="16" viewBox="0 0 16 16" fill="none" xmlns="http://www.w3.org/2000/svg">
<g clip-path="url(#clip0_1087_1469)">
<path d="M7.33398 2.66675H2.66732C2.3137 2.66675 1.97456 2.80722 1.72451 3.05727C1.47446 3.30732 1.33398 3.64646 1.33398 4.00008V13.3334C1.33398 13.687 1.47446 14.0262 1.72451 14.2762C1.97456 14.5263 2.3137 14.6667 2.66732 14.6667H12.0007C12.3543 14.6667 12.6934 14.5263 12.9435 14.2762C13.1935 14.0262 13.334 13.687 13.334 13.3334V8.66675" stroke="#005EAA" stroke-width="1.4" stroke-linecap="round" stroke-linejoin="round"/>
<path d="M13.334 1.25244C12.9589 1.25244 12.5992 1.40144 12.334 1.66666L6.00065 7.99999L5.33398 10.6667L8.00065 9.99999L14.334 3.66666C14.5992 3.40144 14.7482 3.04173 14.7482 2.66665C14.7482 2.29158 14.5992 1.93187 14.334 1.66666C14.0688 1.40144 13.7091 1.25244 13.334 1.25244Z" stroke="#005EAA" stroke-width="1.4" stroke-linecap="round" stroke-linejoin="round"/>
</g>
<defs>
<clipPath id="clip0_1087_1469">
<rect width="16" height="16" fill="white"/>
</clipPath>
</defs>
</svg>
