<svg width="20" height="24" viewBox="0 0 20 24" fill="none" xmlns="http://www.w3.org/2000/svg">
<mask id="path-1-outside-1_600_975" maskUnits="userSpaceOnUse" x="-1.22905" y="-1.02816" width="23.0663" height="26.0587" fill="black">
<rect fill="white" x="-1.22905" y="-1.02816" width="23.0663" height="26.0587"/>
<path d="M8.96546 0.829743C9.57651 0.171146 10.6429 0.173869 11.2506 0.83558L19.3548 8.9813C19.8107 9.4395 19.9612 10.1508 19.7058 10.7595C19.4503 11.3683 18.8399 11.773 18.1797 11.7713L13.3047 11.7588L13.2809 21.1025C13.278 22.2197 12.4124 23.1316 11.2445 23.1286L8.80696 23.1224C7.68977 23.1195 6.77805 22.2031 6.7809 21.0859L6.80477 11.7422L1.92978 11.7298C1.32041 11.7282 0.712074 11.3204 0.459725 10.7104C0.207376 10.1004 0.361534 9.38983 0.819731 8.93397L8.96546 0.829743Z"/>
</mask>
<path d="M8.96546 0.829743C9.57651 0.171146 10.6429 0.173869 11.2506 0.83558L19.3548 8.9813C19.8107 9.4395 19.9612 10.1508 19.7058 10.7595C19.4503 11.3683 18.8399 11.773 18.1797 11.7713L13.3047 11.7588L13.2809 21.1025C13.278 22.2197 12.4124 23.1316 11.2445 23.1286L8.80696 23.1224C7.68977 23.1195 6.77805 22.2031 6.7809 21.0859L6.80477 11.7422L1.92978 11.7298C1.32041 11.7282 0.712074 11.3204 0.459725 10.7104C0.207376 10.1004 0.361534 9.38983 0.819731 8.93397L8.96546 0.829743Z" fill="#58790C"/>
<path d="M8.96546 0.829743L9.67075 1.53865L9.68493 1.52455L9.69852 1.5099L8.96546 0.829743ZM11.2506 0.83558L10.5141 1.51198L10.5276 1.52671L10.5417 1.54088L11.2506 0.83558ZM13.3047 11.7588L13.3073 10.7588L12.3073 10.7563L12.3047 11.7563L13.3047 11.7588ZM6.80477 11.7422L7.80476 11.7448L7.80732 10.7448L6.80732 10.7422L6.80477 11.7422ZM9.69852 1.5099C9.91253 1.27925 10.3013 1.28024 10.5141 1.51198L11.9871 0.159179C10.9846 -0.932502 9.2405 -0.936957 8.23239 0.149589L9.69852 1.5099ZM10.5417 1.54088L18.6459 9.6866L20.0637 8.27601L11.9595 0.13028L10.5417 1.54088ZM18.6459 9.6866C18.8228 9.8644 18.8786 10.1464 18.7837 10.3726L20.6278 11.1465C21.0438 10.1553 20.7986 9.0146 20.0637 8.27601L18.6459 9.6866ZM18.7837 10.3726C18.6844 10.6091 18.4387 10.7719 18.1823 10.7713L18.1772 12.7713C19.241 12.774 20.2162 12.1275 20.6278 11.1465L18.7837 10.3726ZM18.1823 10.7713L13.3073 10.7588L13.3022 12.7588L18.1772 12.7713L18.1823 10.7713ZM12.3047 11.7563L12.2809 21.1L14.2809 21.1051L14.3047 11.7614L12.3047 11.7563ZM12.2809 21.1C12.2794 21.6814 11.8464 22.1301 11.247 22.1286L11.2419 24.1286C12.9785 24.133 14.2767 22.7581 14.2809 21.1051L12.2809 21.1ZM11.247 22.1286L8.80951 22.1224L8.8044 24.1224L11.2419 24.1286L11.247 22.1286ZM8.80951 22.1224C8.24461 22.1209 7.77946 21.6534 7.7809 21.0885L5.78091 21.0834C5.77664 22.7529 7.13494 24.1181 8.8044 24.1224L8.80951 22.1224ZM7.7809 21.0885L7.80476 11.7448L5.80477 11.7397L5.78091 21.0834L7.7809 21.0885ZM6.80732 10.7422L1.93234 10.7298L1.92723 12.7298L6.80221 12.7422L6.80732 10.7422ZM1.93234 10.7298C1.74442 10.7293 1.48871 10.5818 1.38378 10.3281L-0.464331 11.0927C-0.0645669 12.059 0.896403 12.7271 1.92723 12.7298L1.93234 10.7298ZM1.38378 10.3281C1.29 10.1014 1.34723 9.81977 1.52503 9.64288L0.114432 8.22506C-0.62416 8.95989 -0.875252 10.0993 -0.464331 11.0927L1.38378 10.3281ZM1.52503 9.64288L9.67075 1.53865L8.26016 0.120832L0.114432 8.22506L1.52503 9.64288Z" fill="#58790C" mask="url(#path-1-outside-1_600_975)"/>
</svg>
