<svg width="176" height="48" viewBox="0 0 176 48" fill="none" xmlns="http://www.w3.org/2000/svg">
<g clip-path="url(#clip0_1328_3333)">
<path d="M0 37.3017V12.4978H6.36533L18.1248 27.6677V12.4978H24.46V37.3068H18.1248L6.36533 22.137V37.3068H0V37.3017Z" fill="#005EAA"/>
<path d="M34.8653 22.0707H44.0586V12.4978H50.4239V37.3068H44.0586V27.0764H34.8653V37.3068H28.5V12.4978H34.8653V22.0707Z" fill="#005EAA"/>
<path d="M69.0131 18.1608C68.3187 17.5899 67.6294 17.1669 66.935 16.8967C66.2406 16.6214 65.5713 16.4838 64.9222 16.4838C64.097 16.4838 63.4277 16.6826 62.9095 17.0751C62.3912 17.4676 62.1295 17.9875 62.1295 18.6196C62.1295 19.058 62.2603 19.4199 62.517 19.7054C62.7786 19.9908 63.1158 20.2355 63.5384 20.4445C63.9611 20.6535 64.4392 20.8319 64.9675 20.9848C65.4958 21.1377 66.0242 21.3008 66.5425 21.4792C68.6206 22.1827 70.1403 23.1206 71.1064 24.293C72.0675 25.4654 72.5505 26.9946 72.5505 28.8807C72.5505 30.155 72.3392 31.307 71.9165 32.3367C71.4938 33.3664 70.8749 34.2482 70.0648 34.9873C69.2547 35.7214 68.2583 36.2923 67.0759 36.7001C65.8934 37.1079 64.5599 37.3067 63.0654 37.3067C59.9708 37.3067 57.0976 36.3738 54.4609 34.5082L57.1882 29.3088C58.1392 30.1652 59.0802 30.8024 60.0161 31.2153C60.947 31.6333 61.8679 31.8423 62.7786 31.8423C63.8202 31.8423 64.5901 31.6027 65.1034 31.1184C65.6116 30.6342 65.8682 30.0887 65.8682 29.472C65.8682 29.0999 65.8028 28.7736 65.672 28.5035C65.5411 28.2282 65.3248 27.9784 65.0228 27.749C64.7209 27.5197 64.3234 27.3056 63.8353 27.1068C63.3472 26.908 62.7585 26.6888 62.0641 26.4492C61.2389 26.1841 60.4338 25.8936 59.6438 25.5776C58.8538 25.2615 58.1493 24.8384 57.5304 24.3134C56.9115 23.7884 56.4133 23.1257 56.0359 22.3203C55.6585 21.52 55.4673 20.5056 55.4673 19.2772C55.4673 18.0487 55.6686 16.9375 56.0661 15.9384C56.4687 14.9393 57.0272 14.0829 57.7568 13.3744C58.4814 12.6608 59.372 12.1051 60.4187 11.7126C61.4703 11.3201 62.6428 11.1213 63.941 11.1213C65.1537 11.1213 66.4217 11.2896 67.7401 11.6311C69.0584 11.9726 70.3264 12.4721 71.5391 13.1297L69.0081 18.1659L69.0131 18.1608Z" fill="#005EAA"/>
<path d="M76.5898 37.3017V12.4978H82.9552L94.7147 27.6677V12.4978H101.05V37.3068H94.7147L82.9552 22.137V37.3068H76.5898V37.3017Z" fill="#005EAA"/>
<path d="M111.455 12.5029V31.8476H119.089V37.3069H105.09V12.5029H111.455Z" fill="#F7931E"/>
<path d="M123.129 13.9454C123.129 13.4866 123.214 13.0533 123.391 12.6455C123.562 12.2377 123.803 11.886 124.105 11.5751C124.407 11.2692 124.759 11.0297 125.162 10.8512C125.564 10.6779 125.992 10.5862 126.445 10.5862C126.898 10.5862 127.325 10.6728 127.728 10.8512C128.131 11.0297 128.483 11.2692 128.785 11.5751C129.087 11.8809 129.328 12.2377 129.499 12.6455C129.67 13.0533 129.761 13.4866 129.761 13.9454C129.761 14.4041 129.675 14.8374 129.499 15.2452C129.328 15.653 129.087 16.0098 128.785 16.3157C128.483 16.6215 128.131 16.8662 127.728 17.0395C127.325 17.2128 126.898 17.3046 126.445 17.3046C125.992 17.3046 125.564 17.2179 125.162 17.0395C124.759 16.8662 124.407 16.6215 124.105 16.3157C123.803 16.0098 123.562 15.653 123.391 15.2452C123.214 14.8374 123.129 14.4041 123.129 13.9454ZM129.399 20.4293V37.3067H123.521V20.4242H129.399V20.4293Z" fill="#F7931E"/>
<path d="M133.801 20.4344H139.678V22.5753C140.478 21.5864 141.293 20.9238 142.113 20.5822C142.934 20.2407 143.9 20.0725 145.007 20.0725C146.174 20.0725 147.176 20.2662 148.011 20.6485C148.846 21.0308 149.556 21.5762 150.139 22.2746C150.617 22.8455 150.939 23.4827 151.115 24.181C151.287 24.8845 151.377 25.6847 151.377 26.5819V37.3068H145.5V28.784C145.5 27.9531 145.44 27.2751 145.324 26.7603C145.203 26.2455 144.992 25.8326 144.69 25.5267C144.428 25.2617 144.136 25.0782 143.814 24.966C143.487 24.859 143.145 24.8029 142.773 24.8029C141.776 24.8029 141.011 25.1036 140.483 25.7051C139.955 26.3066 139.688 27.1681 139.688 28.2895V37.3068H133.811V20.4344H133.801Z" fill="#F7931E"/>
<path d="M161.286 10V26.5156L167.455 20.4293H175.511L167.163 28.2283L175.999 37.3068H167.752L161.291 30.4304V37.3068H155.414V10H161.291H161.286Z" fill="#F7931E"/>
</g>
<defs>
<clipPath id="clip0_1328_3333">
<rect width="176" height="47.3068" fill="white"/>
</clipPath>
</defs>
</svg>
