<svg width="176" height="48" viewBox="0 0 176 48" fill="none" xmlns="http://www.w3.org/2000/svg">
<g clip-path="url(#clip0_1328_3862)">
<path d="M0 37.6484V12.8445H6.36533L18.1248 28.0143V12.8445H24.46V37.6535H18.1248L6.36533 22.4837V37.6535H0V37.6484Z" fill="white"/>
<path d="M34.8653 22.4174H44.0586V12.8445H50.4239V37.6535H44.0586V27.423H34.8653V37.6535H28.5V12.8445H34.8653V22.4174Z" fill="white"/>
<path d="M69.0131 18.5075C68.3187 17.9366 67.6294 17.5135 66.935 17.2434C66.2406 16.9681 65.5713 16.8305 64.9222 16.8305C64.097 16.8305 63.4277 17.0293 62.9095 17.4218C62.3912 17.8143 62.1295 18.3342 62.1295 18.9663C62.1295 19.4047 62.2603 19.7666 62.517 20.052C62.7786 20.3375 63.1158 20.5822 63.5384 20.7912C63.9611 21.0001 64.4392 21.1786 64.9675 21.3315C65.4958 21.4844 66.0242 21.6475 66.5425 21.8259C68.6206 22.5294 70.1403 23.4673 71.1064 24.6397C72.0675 25.8121 72.5505 27.3413 72.5505 29.2273C72.5505 30.5017 72.3392 31.6537 71.9165 32.6834C71.4938 33.7131 70.8749 34.5949 70.0648 35.334C69.2547 36.0681 68.2583 36.639 67.0759 37.0468C65.8934 37.4545 64.5599 37.6533 63.0654 37.6533C59.9708 37.6533 57.0976 36.7205 54.4609 34.8549L57.1882 29.6555C58.1392 30.5119 59.0802 31.1491 60.0161 31.562C60.947 31.9799 61.8679 32.1889 62.7786 32.1889C63.8202 32.1889 64.5901 31.9494 65.1034 31.4651C65.6116 30.9809 65.8682 30.4354 65.8682 29.8186C65.8682 29.4465 65.8028 29.1203 65.672 28.8501C65.5411 28.5749 65.3248 28.3251 65.0228 28.0957C64.7209 27.8663 64.3234 27.6523 63.8353 27.4535C63.3472 27.2547 62.7585 27.0355 62.0641 26.7959C61.2389 26.5308 60.4338 26.2403 59.6438 25.9242C58.8538 25.6082 58.1493 25.1851 57.5304 24.6601C56.9115 24.135 56.4133 23.4724 56.0359 22.667C55.6585 21.8667 55.4673 20.8523 55.4673 19.6239C55.4673 18.3954 55.6686 17.2841 56.0661 16.2851C56.4687 15.286 57.0272 14.4296 57.7568 13.7211C58.4814 13.0074 59.372 12.4518 60.4187 12.0593C61.4703 11.6668 62.6428 11.468 63.941 11.468C65.1537 11.468 66.4217 11.6362 67.7401 11.9778C69.0584 12.3193 70.3264 12.8188 71.5391 13.4764L69.0081 18.5126L69.0131 18.5075Z" fill="white"/>
<path d="M76.5898 37.6484V12.8445H82.9552L94.7147 28.0143V12.8445H101.05V37.6535H94.7147L82.9552 22.4837V37.6535H76.5898V37.6484Z" fill="white"/>
<path d="M111.455 12.8496V32.1942H119.089V37.6535H105.09V12.8496H111.455Z" fill="white"/>
<path d="M123.129 14.292C123.129 13.8333 123.214 13.4 123.391 12.9922C123.562 12.5844 123.803 12.2327 124.105 11.9218C124.407 11.6159 124.759 11.3763 125.162 11.1979C125.564 11.0246 125.992 10.9329 126.445 10.9329C126.898 10.9329 127.325 11.0195 127.728 11.1979C128.131 11.3763 128.483 11.6159 128.785 11.9218C129.087 12.2276 129.328 12.5844 129.499 12.9922C129.67 13.4 129.761 13.8333 129.761 14.292C129.761 14.7508 129.675 15.1841 129.499 15.5919C129.328 15.9997 129.087 16.3565 128.785 16.6623C128.483 16.9682 128.131 17.2129 127.728 17.3862C127.325 17.5595 126.898 17.6512 126.445 17.6512C125.992 17.6512 125.564 17.5646 125.162 17.3862C124.759 17.2129 124.407 16.9682 124.105 16.6623C123.803 16.3565 123.562 15.9997 123.391 15.5919C123.214 15.1841 123.129 14.7508 123.129 14.292ZM129.399 20.7759V37.6534H123.521V20.7708H129.399V20.7759Z" fill="white"/>
<path d="M133.801 20.7811H139.678V22.922C140.478 21.9331 141.293 21.2705 142.113 20.9289C142.934 20.5874 143.9 20.4192 145.007 20.4192C146.174 20.4192 147.176 20.6129 148.011 20.9952C148.846 21.3775 149.556 21.9229 150.139 22.6213C150.617 23.1922 150.939 23.8293 151.115 24.5277C151.287 25.2311 151.377 26.0314 151.377 26.9286V37.6535H145.5V29.1306C145.5 28.2998 145.44 27.6218 145.324 27.107C145.203 26.5921 144.992 26.1792 144.69 25.8734C144.428 25.6083 144.136 25.4248 143.814 25.3127C143.487 25.2056 143.145 25.1496 142.773 25.1496C141.776 25.1496 141.011 25.4503 140.483 26.0518C139.955 26.6533 139.688 27.5148 139.688 28.6362V37.6535H133.811V20.7811H133.801Z" fill="white"/>
<path d="M161.286 10.3467V26.8622L167.455 20.776H175.511L167.163 28.575L175.999 37.6534H167.752L161.291 30.777V37.6534H155.414V10.3467H161.291H161.286Z" fill="white"/>
</g>
<defs>
<clipPath id="clip0_1328_3862">
<rect width="176" height="47.3068" fill="white" transform="translate(0 0.34668)"/>
</clipPath>
</defs>
</svg>
